<svg xmlns="http://www.w3.org/2000/svg" viewBox="0 0 48 48" role="img" aria-labelledby="title">
  <title id="title">CeroNube</title>
  <rect width="48" height="48" rx="15" fill="#083F43"/>
  <path d="M16.5 12.5h15a5 5 0 0 1 5 5v13a5 5 0 0 1-5 5h-15a5 5 0 0 1-5-5v-13a5 5 0 0 1 5-5Z" fill="none" stroke="#F4EAD7" stroke-width="4"/>
  <circle cx="17" cy="18" r="1.6" fill="#FF8A3D"/>
  <circle cx="22" cy="18" r="1.6" fill="#1EC8C8"/>
  <circle cx="27" cy="18" r="1.6" fill="#F4EAD7"/>
  <path d="M20 23.5h7l4 4v8H20v-12Z" fill="#1EC8C8"/>
  <path d="M27 23.5v4h4" fill="none" stroke="#F4EAD7" stroke-width="1.8" stroke-linejoin="round"/>
  <path d="M8 27h8M6 31h10" fill="none" stroke="#FF8A3D" stroke-width="2.5" stroke-linecap="round"/>
</svg>
