<svg xmlns="http://www.w3.org/2000/svg" viewBox="0 0 64 64">
  <rect width="64" height="64" rx="20" fill="#083F43"/>
  <path d="M22 17h20a6 6 0 0 1 6 6v18a6 6 0 0 1-6 6H22a6 6 0 0 1-6-6V23a6 6 0 0 1 6-6Z" fill="none" stroke="#F4EAD7" stroke-width="5"/>
  <circle cx="23" cy="24" r="2" fill="#FF8A3D"/>
  <circle cx="30" cy="24" r="2" fill="#1EC8C8"/>
  <circle cx="37" cy="24" r="2" fill="#F4EAD7"/>
  <path d="M27 31h9l5 5v11H27V31Z" fill="#1EC8C8"/>
  <path d="M36 31v5h5" fill="none" stroke="#F4EAD7" stroke-width="2" stroke-linejoin="round"/>
  <path d="M10 35h11M7 41h14" fill="none" stroke="#FF8A3D" stroke-width="3" stroke-linecap="round"/>
</svg>
